<svg height="512" viewBox="0 0 512 512" width="512" xmlns="http://www.w3.org/2000/svg"><path d="m362.94 102.43-236.51 236.51a168 168 0 0 1 112.79-274.11q8.28-.825 16.78-.83t16.78.83a167.212 167.212 0 0 1 90.16 37.6z" fill="#6cbae5"/><path d="m368.036 96.263a174.894 174.894 0 0 0 -94.463-39.394 179.1 179.1 0 0 0 -35.142 0 176.01 176.01 0 0 0 -118.167 287.168 8 8 0 0 0 5.787 2.9c.127.006.253.008.38.008a8 8 0 0 0 5.656-2.342l236.513-236.516a8 8 0 0 0 -.561-11.824zm-137.98 127.737h-49.112a235.387 235.387 0 0 1 9.92-60.224 507.977 507.977 0 0 0 57.136 4.152v38.128zm-16 16-30.149 30.148a237.173 237.173 0 0 1 -2.957-30.148zm28.95-167.469c1.659-.134 3.323-.251 4.993-.333v79.73a492.129 492.129 0 0 1 -51.872-3.608 233.2 233.2 0 0 1 46.88-75.789zm20.994 95.398q11.5-.183 23.021-.893l-23.021 23.02zm40.476-18.349c-13.389 1.336-26.957 2.124-40.476 2.346v-79.726c1.672.082 3.338.2 5 .333a234.1 234.1 0 0 1 43.993 68.532zm-85.776-73.21a248.394 248.394 0 0 0 -38.813 69.673 489.955 489.955 0 0 1 -51.261-10.866 159.106 159.106 0 0 1 90.074-58.807zm-99.6 72.779a505.249 505.249 0 0 0 55.761 12.307 251.43 251.43 0 0 0 -9.923 62.544h-68.716a159.08 159.08 0 0 1 22.878-74.851zm8.072 177.741a160.316 160.316 0 0 1 -30.963-86.89h68.729a252.685 252.685 0 0 0 5.261 43.858zm197.995-198a249.34 249.34 0 0 0 -31.87-52.527 158.8 158.8 0 0 1 57.6 26.8z" fill="#428dc5"/><path d="m424 232a167.6 167.6 0 0 0 -38.43-106.94l-236.51 236.51a167.212 167.212 0 0 0 90.16 37.6q8.28.83 16.78.83t16.78-.83c2.423-.24 4.829-.539 7.22-.881v49.711l72.322-78.349a167.793 167.793 0 0 0 71.678-137.651z" fill="#eaeae8"/><g fill="#428dc5"><circle cx="256" cy="312" r="16"/><circle cx="304" cy="312" r="16"/><circle cx="352" cy="312" r="16"/></g><path d="m448.521 96h6.013a8 8 0 0 0 0-16h-24a8 8 0 0 0 -8 8v24a8 8 0 0 0 16 0v-2.638a208 208 0 0 1 -20.218 269.008 8 8 0 0 0 11.368 11.26 224 224 0 0 0 18.837-293.63z" fill="#41dfd0"/><path d="m82.37 72.85a224.007 224.007 0 0 0 -25.438 288.237l-6.76-1a8 8 0 1 0 -2.344 15.828l27 4a8 8 0 0 0 9.11-6.922l3-24a8 8 0 0 0 -15.876-1.984l-.676 5.4a208.021 208.021 0 0 1 23.244-268.192 8 8 0 1 0 -11.26-11.367z" fill="#37c9c3"/></svg>